<?xml version="1.0" encoding="UTF-8"?>
<!DOCTYPE svg PUBLIC "-//W3C//DTD SVG 1.1//EN" "http://www.w3.org/Graphics/SVG/1.1/DTD/svg11.dtd">
<svg xmlns="http://www.w3.org/2000/svg" version="1.1" width="320px" height="107px" style="shape-rendering:geometricPrecision; text-rendering:geometricPrecision; image-rendering:optimizeQuality; fill-rule:evenodd; clip-rule:evenodd" xmlns:xlink="http://www.w3.org/1999/xlink">
<g><path style="opacity:1" fill="#2c2b2a" d="M 98.5,35.5 C 97.4041,41.4218 95.4041,47.0885 92.5,52.5C 87.5412,57.6461 81.5412,60.6461 74.5,61.5C 72.4508,61.2942 72.1175,60.4609 73.5,59C 65.9882,58.1782 58.6549,58.3448 51.5,59.5C 46.041,58.649 40.7077,57.3157 35.5,55.5C 33.2512,54.9202 31.5846,53.5869 30.5,51.5C 28.5251,47.4116 27.0251,43.0782 26,38.5C 25.4117,33.4724 25.5784,28.4724 26.5,23.5C 27.1717,20.6572 28.505,18.1572 30.5,16C 29.0249,10.8903 29.3582,5.89031 31.5,1C 37.7672,0.422374 43.2672,2.25571 48,6.5C 56.0486,4.33117 64.2152,3.99784 72.5,5.5C 77.3957,3.55384 82.3957,1.88718 87.5,0.5C 90.3992,0.231495 91.8992,1.56483 92,4.5C 92.3333,8.5 92.6667,12.5 93,16.5C 97.1515,22.0967 98.9848,28.4301 98.5,35.5 Z"/></g>
<g><path style="opacity:1" fill="#1f1e1e" d="M 78.5,28.5 C 66.4954,28.3335 54.4954,28.5001 42.5,29C 41.944,29.3826 41.6107,29.8826 41.5,30.5C 41.1667,30.5 40.8333,30.5 40.5,30.5C 39.8501,30.1961 39.1835,29.8627 38.5,29.5C 33.1774,34.218 31.0107,40.218 32,47.5C 27.1597,37.8893 27.493,28.556 33,19.5C 33.3333,14.5 33.6667,9.5 34,4.5C 38.743,6.20175 43.4097,8.20175 48,10.5C 52.4236,9.34614 56.9236,8.67948 61.5,8.5C 66.827,9.26689 72.1604,9.43355 77.5,9C 80.3589,6.82025 83.5256,5.32025 87,4.5C 88.7721,7.91175 88.9388,11.4118 87.5,15C 93.5052,24.0175 95.3385,33.8508 93,44.5C 92.6667,45.1667 92.3333,45.8333 92,46.5C 92.6444,39.2917 90.1444,33.4584 84.5,29C 82.5273,28.5045 80.5273,28.3379 78.5,28.5 Z"/></g>
<g><path style="opacity:1" fill="#5b4b43" d="M 78.5,28.5 C 78.5,28.8333 78.5,29.1667 78.5,29.5C 66.1167,29.2062 53.7834,29.5396 41.5,30.5C 41.6107,29.8826 41.944,29.3826 42.5,29C 54.4954,28.5001 66.4954,28.3335 78.5,28.5 Z"/></g>
<g><path style="opacity:1" fill="#131212" d="M 149.5,25.5 C 149.611,26.1174 149.944,26.6174 150.5,27C 153.827,27.6103 157.161,28.1103 160.5,28.5C 160.492,31.5448 160.159,34.5448 159.5,37.5C 156.287,37.19 153.287,37.5233 150.5,38.5C 143.687,37.8123 139.52,40.8123 138,47.5C 137.501,51.1516 137.335,54.8183 137.5,58.5C 138.013,67.9432 143.013,71.2766 152.5,68.5C 152.84,65.0275 152.507,62.3609 151.5,60.5C 149.409,60.6816 147.409,60.3482 145.5,59.5C 144.167,55.8333 144.167,52.1667 145.5,48.5C 151.5,47.1667 157.5,47.1667 163.5,48.5C 164.833,57.8333 164.833,67.1667 163.5,76.5C 153.696,81.7993 144.03,81.7993 134.5,76.5C 132.5,74.329 130.666,71.9957 129,69.5C 127.673,64.5242 126.173,59.8575 124.5,55.5C 123.783,47.7019 125.283,40.3685 129,33.5C 134.392,27.2715 141.225,24.6048 149.5,25.5 Z"/></g>
<g><path style="opacity:0.157" fill="#393738" d="M 297.5,29.5 C 293.5,29.5 289.5,29.5 285.5,29.5C 285.195,46.214 285.529,62.8807 286.5,79.5C 284.514,62.5322 283.847,45.1989 284.5,27.5C 289.294,26.9031 293.627,27.5698 297.5,29.5 Z"/></g>
<g><path style="opacity:0.998" fill="#191818" d="M 297.5,29.5 C 297.173,34.2137 297.507,38.8804 298.5,43.5C 312.673,40.4973 319.34,46.3306 318.5,61C 318.973,78.4045 311.307,83.9045 295.5,77.5C 292.855,79.2419 289.855,79.9086 286.5,79.5C 285.529,62.8807 285.195,46.214 285.5,29.5C 289.5,29.5 293.5,29.5 297.5,29.5 Z M 298.5,53.5 C 304.323,52.9937 306.656,55.6603 305.5,61.5C 306.451,68.2236 303.784,70.5569 297.5,68.5C 297.221,63.4053 297.555,58.4053 298.5,53.5 Z"/></g>
<g><path style="opacity:1" fill="#eec5ad" d="M 78.5,29.5 C 86.8368,32.1663 90.0035,37.8329 88,46.5C 85.2891,53.4491 80.1225,56.7824 72.5,56.5C 63.1339,56.7208 53.8006,56.3874 44.5,55.5C 39.8698,54.2676 37.0364,51.2676 36,46.5C 34.2104,40.0732 35.7104,34.7398 40.5,30.5C 40.8333,30.5 41.1667,30.5 41.5,30.5C 53.7834,29.5396 66.1167,29.2062 78.5,29.5 Z"/></g>
<g><path style="opacity:0.365" fill="#403e3f" d="M 179.5,39.5 C 180.503,32.3353 177.503,29.502 170.5,31C 169.421,32.8587 168.088,34.3587 166.5,35.5C 169.166,28.0656 173.666,26.7322 180,31.5C 180.801,34.367 180.634,37.0336 179.5,39.5 Z"/></g>
<g><path style="opacity:0.94" fill="#0e0c0d" d="M 209.5,29.5 C 213.167,29.5 216.833,29.5 220.5,29.5C 220.5,35.5 220.5,41.5 220.5,47.5C 225.5,47.5 230.5,47.5 235.5,47.5C 235.5,41.5 235.5,35.5 235.5,29.5C 238.833,29.5 242.167,29.5 245.5,29.5C 245.5,45.8333 245.5,62.1667 245.5,78.5C 242.167,78.5 238.833,78.5 235.5,78.5C 235.5,71.1667 235.5,63.8333 235.5,56.5C 230.167,56.5 224.833,56.5 219.5,56.5C 219.5,63.5 219.5,70.5 219.5,77.5C 216.167,77.5 212.833,77.5 209.5,77.5C 209.5,61.5 209.5,45.5 209.5,29.5 Z"/></g>
<g><path style="opacity:0.322" fill="#2f2d2e" d="M 235.5,29.5 C 238.962,28.5184 242.629,28.185 246.5,28.5C 246.5,45.5 246.5,62.5 246.5,79.5C 242.233,79.797 238.066,79.4637 234,78.5C 233.5,71.8417 233.334,65.175 233.5,58.5C 229.833,58.5 226.167,58.5 222.5,58.5C 222.666,65.175 222.5,71.8417 222,78.5C 219.925,79.1344 217.759,79.4677 215.5,79.5C 213.048,79.4609 211.048,78.7943 209.5,77.5C 212.833,77.5 216.167,77.5 219.5,77.5C 219.5,70.5 219.5,63.5 219.5,56.5C 224.833,56.5 230.167,56.5 235.5,56.5C 235.5,63.8333 235.5,71.1667 235.5,78.5C 238.833,78.5 242.167,78.5 245.5,78.5C 245.5,62.1667 245.5,45.8333 245.5,29.5C 242.167,29.5 238.833,29.5 235.5,29.5 Z"/></g>
<g><path style="opacity:1" fill="#0e0d0d" d="M 295.5,77.5 C 295.53,76.5028 295.03,75.8361 294,75.5C 292.31,76.1495 290.477,76.1495 288.5,75.5C 288.5,60.8333 288.5,46.1667 288.5,31.5C 290.167,31.5 291.833,31.5 293.5,31.5C 293.215,36.8968 293.549,42.2302 294.5,47.5C 295.167,47.8333 295.833,48.1667 296.5,48.5C 308.872,43.0168 314.872,47.0168 314.5,60.5C 314.047,64.173 313.547,67.8396 313,71.5C 311.127,73.3898 310.294,75.3898 310.5,77.5C 305.524,78.6381 300.524,78.6381 295.5,77.5 Z M 298.5,53.5 C 297.555,58.4053 297.221,63.4053 297.5,68.5C 303.784,70.5569 306.451,68.2236 305.5,61.5C 306.656,55.6603 304.323,52.9937 298.5,53.5 Z"/></g>
<g><path style="opacity:1" fill="#151314" d="M 179.5,39.5 C 179.5,39.8333 179.5,40.1667 179.5,40.5C 176.43,40.3677 173.43,40.701 170.5,41.5C 167.708,40.6082 166.375,38.6082 166.5,35.5C 168.088,34.3587 169.421,32.8587 170.5,31C 177.503,29.502 180.503,32.3353 179.5,39.5 Z"/></g>
<g><path style="opacity:1" fill="#faf3f0" d="M 78.5,46.5 C 80.3907,44.1643 80.8907,41.4976 80,38.5C 78.3221,36.4468 76.4888,36.1134 74.5,37.5C 72.9692,34.9964 73.8025,33.6631 77,33.5C 79.151,33.6431 80.8176,34.6431 82,36.5C 82.8372,40.2946 82.5039,43.9613 81,47.5C 79.1159,49.5763 76.9492,49.9097 74.5,48.5C 75.9492,47.8281 77.2825,47.1614 78.5,46.5 Z"/></g>
<g><path style="opacity:0.514" fill="#424041" d="M 149.5,25.5 C 153.622,25.6969 157.622,26.5302 161.5,28C 162.566,31.5451 162.233,35.0451 160.5,38.5C 157.23,39.1919 153.897,39.1919 150.5,38.5C 153.287,37.5233 156.287,37.19 159.5,37.5C 160.159,34.5448 160.492,31.5448 160.5,28.5C 157.161,28.1103 153.827,27.6103 150.5,27C 149.944,26.6174 149.611,26.1174 149.5,25.5 Z"/></g>
<g><path style="opacity:0.616" fill="#464545" d="M 199.5,35.5 C 195.936,34.5773 192.269,34.244 188.5,34.5C 188.5,37.8333 188.5,41.1667 188.5,44.5C 187.5,44.5 186.5,44.5 185.5,44.5C 186.13,40.9956 186.797,37.4956 187.5,34C 189.5,33.8333 191.5,33.6667 193.5,33.5C 195.952,33.5391 197.952,34.2057 199.5,35.5 Z"/></g>
<g><path style="opacity:1" fill="#f7ede8" d="M 45.5,33.5 C 52.9252,35.0158 55.0919,39.3491 52,46.5C 49.8723,49.4578 47.2056,50.1244 44,48.5C 40.2492,42.9474 40.7492,37.9474 45.5,33.5 Z"/></g>
<g><path style="opacity:1" fill="#141213" d="M 199.5,35.5 C 199.5,38.1667 199.5,40.8333 199.5,43.5C 201.5,43.5 203.5,43.5 205.5,43.5C 205.5,46.8333 205.5,50.1667 205.5,53.5C 203.265,53.2053 201.265,53.5386 199.5,54.5C 199.173,59.2137 199.507,63.8804 200.5,68.5C 202.747,69.3742 205.08,69.7076 207.5,69.5C 207.81,72.7131 207.477,75.7131 206.5,78.5C 202.154,78.6657 197.821,78.499 193.5,78C 191.144,76.086 189.144,73.9193 187.5,71.5C 186.511,66.0247 186.178,60.358 186.5,54.5C 184.833,54.5 183.167,54.5 181.5,54.5C 181.5,51.1667 181.5,47.8333 181.5,44.5C 182.833,44.5 184.167,44.5 185.5,44.5C 186.5,44.5 187.5,44.5 188.5,44.5C 188.5,41.1667 188.5,37.8333 188.5,34.5C 192.269,34.244 195.936,34.5773 199.5,35.5 Z"/></g>
<g><path style="opacity:1" fill="#af6459" d="M 49.5,37.5 C 50.1174,37.6107 50.6174,37.944 51,38.5C 52.8253,43.9859 50.9919,46.4859 45.5,46C 44.7476,45.3292 44.4142,44.4959 44.5,43.5C 44.5,42.5 44.5,41.5 44.5,40.5C 46.9424,40.6463 47.6091,39.813 46.5,38C 47.448,37.5172 48.448,37.3505 49.5,37.5 Z"/></g>
<g><path style="opacity:1" fill="#b1665c" d="M 78.5,46.5 C 73.7871,46.5324 72.2871,44.1991 74,39.5C 74.8928,40.7112 75.7261,40.7112 76.5,39.5C 75.7573,38.8182 75.0906,38.1515 74.5,37.5C 76.4888,36.1134 78.3221,36.4468 80,38.5C 80.8907,41.4976 80.3907,44.1643 78.5,46.5 Z"/></g>
<g><path style="opacity:1" fill="#d7b2ac" d="M 49.5,37.5 C 48.448,37.3505 47.448,37.5172 46.5,38C 47.6091,39.813 46.9424,40.6463 44.5,40.5C 44.5,41.5 44.5,42.5 44.5,43.5C 43.291,41.5654 43.4577,39.5654 45,37.5C 46.6155,36.1991 48.1155,36.1991 49.5,37.5 Z"/></g>
<g><path style="opacity:0.885" fill="#353334" d="M 179.5,40.5 C 178.158,41.793 176.491,42.6264 174.5,43C 176.473,43.4955 178.473,43.6621 180.5,43.5C 180.667,55.1714 180.5,66.8381 180,78.5C 176.066,79.821 172.233,79.821 168.5,78.5C 168.5,66.8333 168.5,55.1667 168.5,43.5C 170.199,43.6602 171.866,43.4935 173.5,43C 172.263,42.7679 171.263,42.2679 170.5,41.5C 173.43,40.701 176.43,40.3677 179.5,40.5 Z"/></g>
<g><path style="opacity:0.992" fill="#0f0d0e" d="M 266.5,69.5 C 267.833,69.5 269.167,69.5 270.5,69.5C 270.5,61.1667 270.5,52.8333 270.5,44.5C 273.833,44.5 277.167,44.5 280.5,44.5C 280.5,56.1667 280.5,67.8333 280.5,79.5C 279.5,79.5 278.5,79.5 277.5,79.5C 275.692,78.6754 273.859,77.6754 272,76.5C 268.713,77.6552 265.379,78.6552 262,79.5C 259.165,78.7669 256.332,78.1003 253.5,77.5C 252.68,75.8599 251.847,74.1932 251,72.5C 250.5,63.1726 250.334,53.8393 250.5,44.5C 253.833,44.5 257.167,44.5 260.5,44.5C 260.334,52.5069 260.5,60.5069 261,68.5C 262.62,70.632 264.454,70.9653 266.5,69.5 Z"/></g>
<g><path style="opacity:0.266" fill="#5c5b5b" d="M 26.5,23.5 C 25.5784,28.4724 25.4117,33.4724 26,38.5C 27.0251,43.0782 28.5251,47.4116 30.5,51.5C 29.2876,50.7701 28.2876,49.7701 27.5,48.5C 18.7849,49.4425 10.1182,50.7758 1.5,52.5C 1.5,51.5 1.5,50.5 1.5,49.5C 10.7244,48.2004 10.7244,47.5338 1.5,47.5C 1.5,46.5 1.5,45.5 1.5,44.5C 9.48778,43.7012 17.4878,43.0346 25.5,42.5C 24.9893,39.3668 24.656,36.2001 24.5,33C 24.3275,29.5226 24.9942,26.356 26.5,23.5 Z"/></g>
<g><path style="opacity:0.302" fill="#858485" d="M 168.5,43.5 C 168.5,55.1667 168.5,66.8333 168.5,78.5C 167.778,78.0825 167.278,77.4158 167,76.5C 166.333,66.1667 166.333,55.8333 167,45.5C 167.278,44.5842 167.778,43.9175 168.5,43.5 Z"/></g>
<g><path style="opacity:0.407" fill="#474546" d="M 246.5,28.5 C 242.629,28.185 238.962,28.5184 235.5,29.5C 235.5,35.5 235.5,41.5 235.5,47.5C 230.5,47.5 225.5,47.5 220.5,47.5C 220.5,41.5 220.5,35.5 220.5,29.5C 216.833,29.5 213.167,29.5 209.5,29.5C 211.048,28.2057 213.048,27.5391 215.5,27.5C 217.759,27.5323 219.925,27.8656 222,28.5C 222.499,34.1569 222.666,39.8236 222.5,45.5C 226.167,45.5 229.833,45.5 233.5,45.5C 233.334,39.8236 233.501,34.1569 234,28.5C 238.267,27.178 242.434,27.178 246.5,28.5 Z"/></g>
<g><path style="opacity:0.455" fill="#4e4c4d" d="M 266.5,69.5 C 264.454,70.9653 262.62,70.632 261,68.5C 260.5,60.5069 260.334,52.5069 260.5,44.5C 257.167,44.5 253.833,44.5 250.5,44.5C 250.334,53.8393 250.5,63.1726 251,72.5C 251.847,74.1932 252.68,75.8599 253.5,77.5C 250.672,76.146 249.172,73.8127 249,70.5C 248.184,61.5883 248.35,52.755 249.5,44C 253.755,43.2039 257.921,43.3705 262,44.5C 262.333,52.5 262.667,60.5 263,68.5C 264.011,69.3366 265.178,69.67 266.5,69.5 Z"/></g>
<g><path style="opacity:0.565" fill="#414040" d="M 280.5,79.5 C 280.5,67.8333 280.5,56.1667 280.5,44.5C 277.167,44.5 273.833,44.5 270.5,44.5C 270.5,52.8333 270.5,61.1667 270.5,69.5C 269.167,69.5 267.833,69.5 266.5,69.5C 267.209,68.596 268.209,68.2627 269.5,68.5C 269.5,60.1667 269.5,51.8333 269.5,43.5C 273.767,43.203 277.934,43.5363 282,44.5C 282.667,55.8333 282.667,67.1667 282,78.5C 281.617,79.056 281.117,79.3893 280.5,79.5 Z"/></g>
<g><path style="opacity:0.246" fill="#5c5c5c" d="M 98.5,35.5 C 98.3259,37.861 97.9926,40.1944 97.5,42.5C 105.891,42.7628 114.224,43.5961 122.5,45C 122.957,45.414 123.291,45.914 123.5,46.5C 113.807,47.3549 113.474,48.3549 122.5,49.5C 122.5,50.5 122.5,51.5 122.5,52.5C 114.063,50.7884 105.563,49.455 97,48.5C 95.6494,50.0182 94.1494,51.3515 92.5,52.5C 95.4041,47.0885 97.4041,41.4218 98.5,35.5 Z"/></g>
<g><path style="opacity:1" fill="#0d0b0c" d="M 169.5,44.5 C 172.5,44.5 175.5,44.5 178.5,44.5C 178.5,55.8333 178.5,67.1667 178.5,78.5C 175.5,78.5 172.5,78.5 169.5,78.5C 169.5,67.1667 169.5,55.8333 169.5,44.5 Z"/></g>
<g><path style="opacity:0.353" fill="#454445" d="M 296.5,52.5 C 300.007,51.9935 303.174,52.6602 306,54.5C 306.667,59.1667 306.667,63.8333 306,68.5C 303.24,70.703 300.24,71.0363 297,69.5C 296.501,63.8431 296.334,58.1764 296.5,52.5 Z M 298.5,53.5 C 297.555,58.4053 297.221,63.4053 297.5,68.5C 303.784,70.5569 306.451,68.2236 305.5,61.5C 306.656,55.6603 304.323,52.9937 298.5,53.5 Z"/></g>
<g><path style="opacity:0.148" fill="#484748" d="M 205.5,43.5 C 206.117,43.6107 206.617,43.944 207,44.5C 207.667,47.5 207.667,50.5 207,53.5C 204.619,54.435 202.119,54.7683 199.5,54.5C 201.265,53.5386 203.265,53.2053 205.5,53.5C 205.5,50.1667 205.5,46.8333 205.5,43.5 Z"/></g>
<g><path style="opacity:1" fill="#ae9180" d="M 44.5,55.5 C 53.8006,56.3874 63.1339,56.7208 72.5,56.5C 64.3437,57.6566 56.0104,57.8232 47.5,57C 46.2625,56.7679 45.2625,56.2679 44.5,55.5 Z"/></g>
<g><path style="opacity:0.722" fill="#3c3a3b" d="M 124.5,55.5 C 126.173,59.8575 127.673,64.5242 129,69.5C 130.666,71.9957 132.5,74.329 134.5,76.5C 130.116,74.6065 127.282,71.2731 126,66.5C 124.892,62.9137 124.392,59.247 124.5,55.5 Z"/></g>
<g><path style="opacity:0.553" fill="#b0e0f0" d="M 22.5,60.5 C 24.4044,60.7376 25.7377,61.7376 26.5,63.5C 26.2782,66.0764 24.9449,66.9098 22.5,66C 21.8617,64.2933 21.8617,62.46 22.5,60.5 Z"/></g>
<g><path style="opacity:0.991" fill="#212121" d="M 74.5,61.5 C 75.9663,62.347 76.7996,63.6803 77,65.5C 77.4993,70.4889 77.6659,75.4889 77.5,80.5C 75.8777,84.912 76.8777,88.5786 80.5,91.5C 73.4736,91.9718 70.307,88.6385 71,81.5C 70.586,81.0426 70.086,80.7093 69.5,80.5C 69.1667,82.3333 68.8333,84.1667 68.5,86C 68.4215,89.407 69.0882,92.5736 70.5,95.5C 67.11,95.8851 64.7767,94.5517 63.5,91.5C 63.5,83.1667 63.5,74.8333 63.5,66.5C 62.5,66.5 61.5,66.5 60.5,66.5C 60.5,74.8333 60.5,83.1667 60.5,91.5C 60.5,91.8333 60.5,92.1667 60.5,92.5C 59.3734,93.1217 58.3734,93.955 57.5,95C 56.0563,95.7805 54.723,95.6139 53.5,94.5C 55.7027,90.0576 56.036,85.391 54.5,80.5C 54.5677,88.0947 50.9011,91.7614 43.5,91.5C 44.2066,89.8656 45.3732,88.5323 47,87.5C 47.4955,85.5273 47.6621,83.5273 47.5,81.5C 47.5,79.1667 47.5,76.8333 47.5,74.5C 44.5,74.5 41.5,74.5 38.5,74.5C 37.5084,74.6716 36.8417,74.3382 36.5,73.5C 34.7451,72.0382 33.4118,70.2049 32.5,68C 34.9942,68.4569 37.4942,69.2902 40,70.5C 40.9454,70.0946 41.6121,69.428 42,68.5C 42.7253,70.158 43.892,70.658 45.5,70C 48.3954,67.0461 50.3954,63.5461 51.5,59.5C 58.6549,58.3448 65.9882,58.1782 73.5,59C 72.1175,60.4609 72.4508,61.2942 74.5,61.5 Z"/></g>
<g><path style="opacity:0.988" fill="#424547" d="M 35.5,55.5 C 40.7077,57.3157 46.041,58.649 51.5,59.5C 50.3954,63.5461 48.3954,67.0461 45.5,70C 43.892,70.658 42.7253,70.158 42,68.5C 41.6121,69.428 40.9454,70.0946 40,70.5C 37.4942,69.2902 34.9942,68.4569 32.5,68C 33.4118,70.2049 34.7451,72.0382 36.5,73.5C 35.0783,73.2914 33.745,72.7914 32.5,72C 30.6009,69.0123 28.6009,66.1789 26.5,63.5C 25.7377,61.7376 24.4044,60.7376 22.5,60.5C 21.3157,59.3121 21.3157,58.1455 22.5,57C 24.5,56.3333 26.5,56.3333 28.5,57C 32.1667,59.3333 35.1667,62.3333 37.5,66C 40.5,66.6667 43.5,66.6667 46.5,66C 47.5,64.3333 48.5,62.6667 49.5,61C 44.2113,60.4106 39.5446,58.5773 35.5,55.5 Z"/></g>
<g><path style="opacity:0.686" fill="#404547" d="M 63.5,91.5 C 62.6773,88.023 62.1773,84.3563 62,80.5C 61.8227,84.3563 61.3227,88.023 60.5,91.5C 60.5,83.1667 60.5,74.8333 60.5,66.5C 61.5,66.5 62.5,66.5 63.5,66.5C 63.5,74.8333 63.5,83.1667 63.5,91.5 Z"/></g>
<g><path style="opacity:0.098" fill="#403e3f" d="M 137.5,58.5 C 139.065,65.9656 143.731,68.9656 151.5,67.5C 151.5,65.1667 151.5,62.8333 151.5,60.5C 152.507,62.3609 152.84,65.0275 152.5,68.5C 143.013,71.2766 138.013,67.9432 137.5,58.5 Z"/></g>
<g><path style="opacity:0.106" fill="#565656" d="M 38.5,74.5 C 41.5,74.5 44.5,74.5 47.5,74.5C 47.5,76.8333 47.5,79.1667 47.5,81.5C 46.8333,81.5 46.5,81.1667 46.5,80.5C 46.5,78.8333 46.5,77.1667 46.5,75.5C 43.6146,75.8064 40.9479,75.4731 38.5,74.5 Z"/></g>
<g><path style="opacity:0.349" fill="#494748" d="M 187.5,71.5 C 189.144,73.9193 191.144,76.086 193.5,78C 197.821,78.499 202.154,78.6657 206.5,78.5C 200.357,81.5042 194.524,80.8375 189,76.5C 187.991,74.9751 187.491,73.3084 187.5,71.5 Z"/></g>
<g><path style="opacity:0.529" fill="#464445" d="M 277.5,79.5 C 275.409,79.6816 273.409,79.3482 271.5,78.5C 265.887,80.8467 260.22,81.0133 254.5,79C 253.944,78.6174 253.611,78.1174 253.5,77.5C 256.332,78.1003 259.165,78.7669 262,79.5C 265.379,78.6552 268.713,77.6552 272,76.5C 273.859,77.6754 275.692,78.6754 277.5,79.5 Z"/></g>
<g><path style="opacity:0.998" fill="#9fd9ee" d="M 46.5,80.5 C 46.5,81.1667 46.8333,81.5 47.5,81.5C 47.6621,83.5273 47.4955,85.5273 47,87.5C 45.3732,88.5323 44.2066,89.8656 43.5,91.5C 45.1392,92.4725 46.4726,93.8058 47.5,95.5C 47.5,98.5 47.5,101.5 47.5,104.5C 41.806,103.769 36.4727,101.935 31.5,99C 26.1667,94.6667 26.1667,90.3333 31.5,86C 36.3476,83.6628 41.3476,81.8295 46.5,80.5 Z"/></g>
<g><path style="opacity:0.999" fill="#9fd9ee" d="M 77.5,80.5 C 83.1054,81.4657 88.4387,83.2991 93.5,86C 98.8333,90.3333 98.8333,94.6667 93.5,99C 88.2453,102.141 82.5787,103.974 76.5,104.5C 76.335,101.15 76.5017,97.8168 77,94.5C 78.1451,93.3636 79.3117,92.3636 80.5,91.5C 76.8777,88.5786 75.8777,84.912 77.5,80.5 Z"/></g>
<g><path style="opacity:1" fill="#79b0d3" d="M 60.5,92.5 C 60.2052,95.9878 60.2052,99.6544 60.5,103.5C 58.8333,103.5 57.1667,103.5 55.5,103.5C 55.5,101.167 55.5,98.8333 55.5,96.5C 54.5,96.5 53.5,96.5 52.5,96.5C 52.5,98.8333 52.5,101.167 52.5,103.5C 51.1667,103.5 49.8333,103.5 48.5,103.5C 48.8064,100.615 48.4731,97.9479 47.5,95.5C 46.4726,93.8058 45.1392,92.4725 43.5,91.5C 50.9011,91.7614 54.5677,88.0947 54.5,80.5C 56.036,85.391 55.7027,90.0576 53.5,94.5C 54.723,95.6139 56.0563,95.7805 57.5,95C 58.3734,93.955 59.3734,93.1217 60.5,92.5 Z"/></g>
<g><path style="opacity:0.992" fill="#83bcdf" d="M 63.5,91.5 C 64.7767,94.5517 67.11,95.8851 70.5,95.5C 69.0882,92.5736 68.4215,89.407 68.5,86C 68.8333,84.1667 69.1667,82.3333 69.5,80.5C 70.086,80.7093 70.586,81.0426 71,81.5C 70.307,88.6385 73.4736,91.9718 80.5,91.5C 79.3117,92.3636 78.1451,93.3636 77,94.5C 76.5017,97.8168 76.335,101.15 76.5,104.5C 66.8402,105.804 57.1736,105.804 47.5,104.5C 47.5,101.5 47.5,98.5 47.5,95.5C 48.4731,97.9479 48.8064,100.615 48.5,103.5C 49.8333,103.5 51.1667,103.5 52.5,103.5C 52.5,101.167 52.5,98.8333 52.5,96.5C 53.5,96.5 54.5,96.5 55.5,96.5C 55.5,98.8333 55.5,101.167 55.5,103.5C 57.1667,103.5 58.8333,103.5 60.5,103.5C 60.2052,99.6544 60.2052,95.9878 60.5,92.5C 60.5,92.1667 60.5,91.8333 60.5,91.5C 61.3227,88.023 61.8227,84.3563 62,80.5C 62.1773,84.3563 62.6773,88.023 63.5,91.5 Z"/></g>
</svg>
