<?xml version="1.0" encoding="UTF-8"?>
<!DOCTYPE svg PUBLIC "-//W3C//DTD SVG 1.1//EN" "http://www.w3.org/Graphics/SVG/1.1/DTD/svg11.dtd">
<svg xmlns="http://www.w3.org/2000/svg" version="1.1" width="400px" height="576px" style="shape-rendering:geometricPrecision; text-rendering:geometricPrecision; image-rendering:optimizeQuality; fill-rule:evenodd; clip-rule:evenodd" xmlns:xlink="http://www.w3.org/1999/xlink">
<g><path style="opacity:0.994" fill="#070707" d="M 135.5,194.5 C 136.167,195.833 137.167,196.833 138.5,197.5C 138.5,198.167 138.833,198.5 139.5,198.5C 135.898,199.208 132.231,198.708 128.5,197C 116.626,190.457 106.626,181.791 98.5,171C 70.3686,170.342 46.8686,159.842 28,139.5C 12.2083,114.762 15.0417,92.2621 36.5,72C 62.2898,52.5678 91.2898,45.5678 123.5,51C 145.133,54.065 163.3,63.565 178,79.5C 194.643,103.431 192.81,125.931 172.5,147C 158.236,158.876 141.903,166.542 123.5,170C 125.797,179.093 129.797,187.26 135.5,194.5 Z"/></g>
<g><path style="opacity:1" fill="#fbfbfb" d="M 88.5,56.5 C 117.086,53.3132 143.086,59.8132 166.5,76C 190.34,98.65 190.34,121.317 166.5,144C 152.128,154.296 136.128,160.796 118.5,163.5C 119.378,167.809 120.212,172.142 121,176.5C 124.016,182.19 126.683,187.856 129,193.5C 121.115,188.218 113.782,182.218 107,175.5C 104.344,171.856 102.511,167.856 101.5,163.5C 73.9125,164.037 50.7458,154.37 32,134.5C 19.2732,114.631 21.1065,96.1306 37.5,79C 52.3692,66.5632 69.3692,59.0632 88.5,56.5 Z"/></g>
<g><path style="opacity:1" fill="#7e7e7e" d="M 108.5,78.5 C 109.919,77.5489 111.585,77.2155 113.5,77.5C 113.157,79.4832 113.824,80.8166 115.5,81.5C 114.791,82.404 113.791,82.7373 112.5,82.5C 112.5,81.1667 112.5,79.8333 112.5,78.5C 111.167,78.5 109.833,78.5 108.5,78.5 Z"/></g>
<g><path style="opacity:1" fill="#0c0c0c" d="M 108.5,78.5 C 109.833,78.5 111.167,78.5 112.5,78.5C 112.5,79.8333 112.5,81.1667 112.5,82.5C 113.791,82.7373 114.791,82.404 115.5,81.5C 119.8,81.8153 121.467,84.1486 120.5,88.5C 120.5,91.8333 120.5,95.1667 120.5,98.5C 118.833,98.5 117.167,98.5 115.5,98.5C 115.5,97.8333 115.5,97.1667 115.5,96.5C 115.656,92.4183 115.156,88.4183 114,84.5C 113.306,88.554 113.473,92.554 114.5,96.5C 113.082,98.3079 111.082,98.9746 108.5,98.5C 108.5,91.8333 108.5,85.1667 108.5,78.5 Z"/></g>
<g><path style="opacity:1" fill="#161616" d="M 146.5,79.5 C 153.607,78.3787 156.94,81.3787 156.5,88.5C 154.5,88.5 152.5,88.5 150.5,88.5C 150.338,90.5273 150.505,92.5273 151,94.5C 151.494,92.8659 151.66,91.1992 151.5,89.5C 153.167,89.5 154.833,89.5 156.5,89.5C 156.756,91.7925 156.423,93.9592 155.5,96C 148.573,98.3707 144.906,96.0374 144.5,89C 144.422,85.6365 145.089,82.4698 146.5,79.5 Z"/></g>
<g><path style="opacity:1" fill="#585858" d="M 49.5,82.5 C 50.9187,81.5489 52.5853,81.2155 54.5,81.5C 54.5,82.8333 54.5,84.1667 54.5,85.5C 53.596,84.791 53.2627,83.791 53.5,82.5C 52.1667,82.5 50.8333,82.5 49.5,82.5 Z"/></g>
<g><path style="opacity:1" fill="#0e0e0e" d="M 133.5,84.5 C 133.5,86.5 133.5,88.5 133.5,90.5C 131.5,90.5 129.5,90.5 127.5,90.5C 127.622,94.8383 127.955,95.1716 128.5,91.5C 130.5,91.5 132.5,91.5 134.5,91.5C 132.369,98.8775 128.369,100.211 122.5,95.5C 122.802,92.9407 122.468,90.6074 121.5,88.5C 121.661,81.8472 124.994,79.6805 131.5,82C 132.066,82.9947 132.733,83.828 133.5,84.5 Z"/></g>
<g><path style="opacity:1" fill="#0b0b0b" d="M 135.5,80.5 C 137.877,80.7845 140.044,80.7845 142,80.5C 142.494,82.1341 142.66,83.8008 142.5,85.5C 140.577,89.0293 139.911,93.0293 140.5,97.5C 138.833,97.5 137.167,97.5 135.5,97.5C 135.5,93.5 135.5,89.5 135.5,85.5C 135.5,83.8333 135.5,82.1667 135.5,80.5 Z"/></g>
<g><path style="opacity:1" fill="#1a1a1a" d="M 49.5,82.5 C 50.8333,82.5 52.1667,82.5 53.5,82.5C 53.2627,83.791 53.596,84.791 54.5,85.5C 54.9801,90.8221 55.3135,96.1554 55.5,101.5C 53.1944,101.993 50.861,102.326 48.5,102.5C 49.331,95.8689 49.6643,89.2022 49.5,82.5 Z"/></g>
<g><path style="opacity:1" fill="#101010" d="M 90.5,97.5 C 90.5,93.8333 90.5,90.1667 90.5,86.5C 90.5,85.1667 90.5,83.8333 90.5,82.5C 94.4434,82.9411 98.4434,83.2745 102.5,83.5C 102.666,88.5111 102.499,93.5111 102,98.5C 98.3592,100.213 94.5259,101.213 90.5,101.5C 90.5,100.167 90.5,98.8333 90.5,97.5 Z"/></g>
<g><path style="opacity:1" fill="#111111" d="M 88.5,86.5 C 88.5,89.1667 88.5,91.8333 88.5,94.5C 88.5,96.1667 88.5,97.8333 88.5,99.5C 87.1667,99.5 85.8333,99.5 84.5,99.5C 84.5,97.8333 84.5,96.1667 84.5,94.5C 84.5,93.1667 84.5,91.8333 84.5,90.5C 84.5,89.1667 84.5,87.8333 84.5,86.5C 83.5,86.5 82.5,86.5 81.5,86.5C 81.19,89.7131 81.5233,92.7131 82.5,95.5C 82.5,97.1667 82.5,98.8333 82.5,100.5C 80.8333,100.5 79.1667,100.5 77.5,100.5C 77.8256,96.1161 77.4922,91.7828 76.5,87.5C 75.5067,92.1196 75.1734,96.7863 75.5,101.5C 74.1667,101.5 72.8333,101.5 71.5,101.5C 71.3651,95.819 71.0318,90.1523 70.5,84.5C 75.3928,83.5414 80.2262,83.2081 85,83.5C 87.2747,83.2776 88.4413,84.2776 88.5,86.5 Z"/></g>
<g><path style="opacity:1" fill="#8e8e8e" d="M 126.5,83.5 C 128.344,84.2039 128.844,85.5372 128,87.5C 126.812,86.4366 126.312,85.1033 126.5,83.5 Z"/></g>
<g><path style="opacity:1" fill="#141414" d="M 63.5,84.5 C 65.1667,84.5 66.8333,84.5 68.5,84.5C 68.5,90.1667 68.5,95.8333 68.5,101.5C 65.091,101.751 61.7577,101.417 58.5,100.5C 57.0958,95.5995 56.4291,90.5995 56.5,85.5C 58.1667,85.5 59.8333,85.5 61.5,85.5C 61.5,89.8333 61.5,94.1667 61.5,98.5C 62.5,98.5 63.5,98.5 64.5,98.5C 64.1667,93.8333 63.8333,89.1667 63.5,84.5 Z"/></g>
<g><path style="opacity:1" fill="#838383" d="M 84.5,90.5 C 83.7321,89.7375 83.2321,88.7375 83,87.5C 82.5026,90.146 82.3359,92.8127 82.5,95.5C 81.5233,92.7131 81.19,89.7131 81.5,86.5C 82.5,86.5 83.5,86.5 84.5,86.5C 84.5,87.8333 84.5,89.1667 84.5,90.5 Z"/></g>
<g><path style="opacity:1" fill="#767676" d="M 142.5,85.5 C 141.891,89.6047 141.225,93.6047 140.5,97.5C 139.911,93.0293 140.577,89.0293 142.5,85.5 Z"/></g>
<g><path style="opacity:1" fill="#a4a4a4" d="M 88.5,86.5 C 89.1667,86.5 89.8333,86.5 90.5,86.5C 90.5,90.1667 90.5,93.8333 90.5,97.5C 90.1667,97.5 89.8333,97.5 89.5,97.5C 89.7373,96.209 89.404,95.209 88.5,94.5C 88.5,91.8333 88.5,89.1667 88.5,86.5 Z"/></g>
<g><path style="opacity:1" fill="#9f9f9f" d="M 115.5,96.5 C 115.167,96.5 114.833,96.5 114.5,96.5C 113.473,92.554 113.306,88.554 114,84.5C 115.156,88.4183 115.656,92.4183 115.5,96.5 Z"/></g>
<g><path style="opacity:1" fill="#898989" d="M 120.5,88.5 C 120.833,88.5 121.167,88.5 121.5,88.5C 122.468,90.6074 122.802,92.9407 122.5,95.5C 121.566,96.5676 121.232,97.901 121.5,99.5C 119.265,99.7947 117.265,99.4614 115.5,98.5C 117.167,98.5 118.833,98.5 120.5,98.5C 120.5,95.1667 120.5,91.8333 120.5,88.5 Z"/></g>
<g><path style="opacity:1" fill="#a2a2a2" d="M 135.5,80.5 C 135.5,82.1667 135.5,83.8333 135.5,85.5C 134.539,87.2646 134.205,89.2646 134.5,91.5C 132.5,91.5 130.5,91.5 128.5,91.5C 127.955,95.1716 127.622,94.8383 127.5,90.5C 129.5,90.5 131.5,90.5 133.5,90.5C 133.5,88.5 133.5,86.5 133.5,84.5C 134.167,83.1667 134.833,81.8333 135.5,80.5 Z"/></g>
<g><path style="opacity:1" fill="#9d9d9d" d="M 95.5,85.5 C 97.1309,89.3192 97.4643,93.3192 96.5,97.5C 95.5091,93.5546 95.1758,89.5546 95.5,85.5 Z"/></g>
<g><path style="opacity:1" fill="#515151" d="M 84.5,94.5 C 84.5,96.1667 84.5,97.8333 84.5,99.5C 85.8333,99.5 87.1667,99.5 88.5,99.5C 88.5,97.8333 88.5,96.1667 88.5,94.5C 89.404,95.209 89.7373,96.209 89.5,97.5C 89.5,98.5 89.5,99.5 89.5,100.5C 87.5,100.5 85.5,100.5 83.5,100.5C 83.2053,98.2646 83.5386,96.2646 84.5,94.5 Z"/></g>
<g><path style="opacity:1" fill="#0a0a0a" d="M 155.5,111.5 C 158.421,111.283 161.087,111.949 163.5,113.5C 164.341,115.379 164.675,117.379 164.5,119.5C 162.265,119.205 160.265,119.539 158.5,120.5C 158.372,126.453 159.039,126.787 160.5,121.5C 161.833,121.5 163.167,121.5 164.5,121.5C 164.5,122.833 164.5,124.167 164.5,125.5C 164.389,126.117 164.056,126.617 163.5,127C 160.518,127.498 157.518,127.665 154.5,127.5C 153.771,122.87 153.437,118.203 153.5,113.5C 154.5,113.167 155.167,112.5 155.5,111.5 Z"/></g>
<g><path style="opacity:1" fill="#666666" d="M 155.5,111.5 C 157.288,110.378 159.288,110.211 161.5,111C 162.756,111.417 163.423,112.25 163.5,113.5C 161.087,111.949 158.421,111.283 155.5,111.5 Z"/></g>
<g><path style="opacity:1" fill="#101010" d="M 150.5,112.5 C 150.833,117.833 151.167,123.167 151.5,128.5C 150.167,128.5 148.833,128.5 147.5,128.5C 147.487,123.74 146.82,119.074 145.5,114.5C 144.526,116.743 144.192,119.076 144.5,121.5C 144.5,123.833 144.5,126.167 144.5,128.5C 143.167,128.5 141.833,128.5 140.5,128.5C 140.038,123.838 139.538,119.171 139,114.5C 137.558,119.309 137.058,124.309 137.5,129.5C 136.167,129.5 134.833,129.5 133.5,129.5C 133.553,123.804 133.22,118.138 132.5,112.5C 138.843,112.987 144.843,112.987 150.5,112.5 Z"/></g>
<g><path style="opacity:1" fill="#151515" d="M 55.5,121.5 C 55.5,124.167 55.5,126.833 55.5,129.5C 55.5,130.833 55.5,132.167 55.5,133.5C 53.8333,133.5 52.1667,133.5 50.5,133.5C 50.6657,129.154 50.499,124.821 50,120.5C 48.4399,117.95 48.9399,115.617 51.5,113.5C 53.0453,112.548 54.712,112.215 56.5,112.5C 56.5198,114.143 55.8532,115.476 54.5,116.5C 55.1667,117.167 55.8333,117.833 56.5,118.5C 55.8728,119.417 55.5394,120.417 55.5,121.5 Z"/></g>
<g><path style="opacity:1" fill="#151515" d="M 111.5,124.5 C 109.087,123.126 107.421,121.126 106.5,118.5C 107.761,113.753 110.761,112.42 115.5,114.5C 116.415,115.328 117.081,116.328 117.5,117.5C 115.321,117.991 113.321,117.991 111.5,117.5C 112.04,118.748 112.707,119.915 113.5,121C 119.291,123.003 119.958,126.17 115.5,130.5C 109.943,132.217 107.277,130.217 107.5,124.5C 108.833,124.5 110.167,124.5 111.5,124.5 Z"/></g>
<g><path style="opacity:1" fill="#0e0e0e" d="M 124.5,113.5 C 125.167,132.167 125.833,132.167 126.5,113.5C 127.833,113.5 129.167,113.5 130.5,113.5C 130.5,118.833 130.5,124.167 130.5,129.5C 129.5,129.5 128.5,129.5 127.5,129.5C 124.833,130.833 122.167,130.833 119.5,129.5C 119.5,124.167 119.5,118.833 119.5,113.5C 121.167,113.5 122.833,113.5 124.5,113.5 Z"/></g>
<g><path style="opacity:1" fill="#171717" d="M 105.5,122.5 C 103.5,122.5 101.5,122.5 99.5,122.5C 99.3379,124.527 99.5045,126.527 100,128.5C 100.49,127.207 100.657,125.873 100.5,124.5C 102.167,124.5 103.833,124.5 105.5,124.5C 105.371,126.216 105.038,127.883 104.5,129.5C 101.961,131.854 98.9606,132.188 95.5,130.5C 93.8173,127.398 93.1506,124.064 93.5,120.5C 94.4345,119.432 94.7678,118.099 94.5,116.5C 97.5046,114.701 100.838,114.034 104.5,114.5C 105.092,117.127 105.425,119.794 105.5,122.5 Z"/></g>
<g><path style="opacity:1" fill="#0a0a0a" d="M 92.5,114.5 C 92.6747,116.621 92.3414,118.621 91.5,120.5C 90.5184,123.962 90.185,127.629 90.5,131.5C 88.8333,131.5 87.1667,131.5 85.5,131.5C 85.7845,129.585 85.4511,127.919 84.5,126.5C 84.5,122.833 84.5,119.167 84.5,115.5C 87.2372,115.599 89.9039,115.265 92.5,114.5 Z"/></g>
<g><path style="opacity:1" fill="#838383" d="M 157.5,114.5 C 159.337,114.639 159.67,115.306 158.5,116.5C 157.702,116.043 157.369,115.376 157.5,114.5 Z"/></g>
<g><path style="opacity:1" fill="#0f0f0f" d="M 71.5,132.5 C 71.8016,129.941 71.4682,127.607 70.5,125.5C 70.5,122.5 70.5,119.5 70.5,116.5C 73.1667,116.5 75.8333,116.5 78.5,116.5C 77.1273,121.723 76.4607,127.056 76.5,132.5C 74.8333,132.5 73.1667,132.5 71.5,132.5 Z"/></g>
<g><path style="opacity:1" fill="#101010" d="M 69.5,125.5 C 69.233,127.965 68.5664,130.299 67.5,132.5C 60.8173,134.824 57.484,132.49 57.5,125.5C 57.5,124.167 57.5,122.833 57.5,121.5C 57.4208,120.07 57.7542,118.736 58.5,117.5C 66.3718,114.592 70.0384,117.259 69.5,125.5 Z"/></g>
<g><path style="opacity:1" fill="#969696" d="M 92.5,114.5 C 93.1667,115.167 93.8333,115.833 94.5,116.5C 94.7678,118.099 94.4345,119.432 93.5,120.5C 92.8333,120.5 92.1667,120.5 91.5,120.5C 92.3414,118.621 92.6747,116.621 92.5,114.5 Z"/></g>
<g><path style="opacity:1" fill="#afafaf" d="M 150.5,112.5 C 151.302,113.952 151.802,115.618 152,117.5C 152.21,115.942 152.71,114.609 153.5,113.5C 153.437,118.203 153.771,122.87 154.5,127.5C 153.732,126.737 153.232,125.737 153,124.5C 152.79,126.058 152.29,127.391 151.5,128.5C 151.167,123.167 150.833,117.833 150.5,112.5 Z"/></g>
<g><path style="opacity:1" fill="#848484" d="M 98.5,117.5 C 100.465,117.948 100.798,118.948 99.5,120.5C 98.6143,119.675 98.281,118.675 98.5,117.5 Z"/></g>
<g><path style="opacity:1" fill="#9b9b9b" d="M 127.5,129.5 C 128.5,129.5 129.5,129.5 130.5,129.5C 130.5,124.167 130.5,118.833 130.5,113.5C 129.167,113.5 127.833,113.5 126.5,113.5C 125.833,132.167 125.167,132.167 124.5,113.5C 126.717,112.631 129.05,112.298 131.5,112.5C 131.5,118.5 131.5,124.5 131.5,130.5C 129.901,130.768 128.568,130.434 127.5,129.5 Z"/></g>
<g><path style="opacity:1" fill="#ededed" d="M 158.5,120.5 C 159.492,120.328 160.158,120.662 160.5,121.5C 159.039,126.787 158.372,126.453 158.5,120.5 Z"/></g>
<g><path style="opacity:1" fill="#808080" d="M 158.5,120.5 C 160.265,119.539 162.265,119.205 164.5,119.5C 165.742,121.611 165.742,123.611 164.5,125.5C 164.5,124.167 164.5,122.833 164.5,121.5C 163.167,121.5 161.833,121.5 160.5,121.5C 160.158,120.662 159.492,120.328 158.5,120.5 Z"/></g>
<g><path style="opacity:1" fill="#959595" d="M 105.5,122.5 C 107.086,125.216 106.753,127.55 104.5,129.5C 105.038,127.883 105.371,126.216 105.5,124.5C 103.833,124.5 102.167,124.5 100.5,124.5C 100.657,125.873 100.49,127.207 100,128.5C 99.5045,126.527 99.3379,124.527 99.5,122.5C 101.5,122.5 103.5,122.5 105.5,122.5 Z"/></g>
<g><path style="opacity:1" fill="#969696" d="M 55.5,121.5 C 56.1667,121.5 56.8333,121.5 57.5,121.5C 57.5,122.833 57.5,124.167 57.5,125.5C 56.8333,126.833 56.1667,128.167 55.5,129.5C 55.5,126.833 55.5,124.167 55.5,121.5 Z"/></g>
<g><path style="opacity:1" fill="#989898" d="M 62.5,119.5 C 64.4149,122.933 64.7483,126.6 63.5,130.5C 62.5108,126.893 62.1774,123.226 62.5,119.5 Z"/></g>
<g><path style="opacity:1" fill="#a9a9a9" d="M 111.5,124.5 C 115.31,125.754 115.31,126.754 111.5,127.5C 111.5,126.5 111.5,125.5 111.5,124.5 Z"/></g>
<g><path style="opacity:1" fill="#a4a4a4" d="M 69.5,125.5 C 69.8333,125.5 70.1667,125.5 70.5,125.5C 71.4682,127.607 71.8016,129.941 71.5,132.5C 70.7321,131.737 70.2321,130.737 70,129.5C 69.7645,131.119 68.9311,132.119 67.5,132.5C 68.5664,130.299 69.233,127.965 69.5,125.5 Z"/></g>
<g><path style="opacity:1" fill="#909090" d="M 144.5,121.5 C 145.473,123.948 145.806,126.615 145.5,129.5C 143.585,129.784 141.919,129.451 140.5,128.5C 141.833,128.5 143.167,128.5 144.5,128.5C 144.5,126.167 144.5,123.833 144.5,121.5 Z"/></g>
<g><path style="opacity:1" fill="#6e6e6e" d="M 84.5,126.5 C 85.4511,127.919 85.7845,129.585 85.5,131.5C 87.1667,131.5 88.8333,131.5 90.5,131.5C 88.7354,132.461 86.7354,132.795 84.5,132.5C 84.5,130.5 84.5,128.5 84.5,126.5 Z"/></g>
<g><path style="opacity:0.987" fill="#aac272" d="M 218.5,247.5 C 217.167,247.5 215.833,247.5 214.5,247.5C 208.508,248.703 202.508,248.703 196.5,247.5C 195.167,247.5 193.833,247.5 192.5,247.5C 185.263,245.939 178.263,243.439 171.5,240C 168.865,238.039 167.031,235.539 166,232.5C 165.524,227.783 165.524,223.117 166,218.5C 165.333,219.167 164.667,219.833 164,220.5C 156.719,216.886 151.052,211.552 147,204.5C 144.914,201.906 142.414,199.906 139.5,198.5C 138.833,198.5 138.5,198.167 138.5,197.5C 137.167,196.833 136.167,195.833 135.5,194.5C 149.763,190.073 163.763,190.74 177.5,196.5C 177.343,197.873 177.51,199.207 178,200.5C 188.5,181.89 203.333,177.39 222.5,187C 227.054,190.887 230.887,195.387 234,200.5C 234.49,199.207 234.657,197.873 234.5,196.5C 246.055,191.506 258.055,190.339 270.5,193C 272.619,193.098 274.286,193.931 275.5,195.5C 271.761,198.135 268.261,201.135 265,204.5C 260.684,211.436 254.85,216.77 247.5,220.5C 246.808,219.975 246.308,219.308 246,218.5C 246.933,224.189 246.6,229.855 245,235.5C 243.5,237 242,238.5 240.5,240C 233.375,243.439 226.041,245.939 218.5,247.5 Z M 150.5,196.5 C 150.5,197.5 150.5,198.5 150.5,199.5C 145.634,197.479 145.634,196.479 150.5,196.5 Z M 261.5,196.5 C 265.289,196.737 265.289,197.404 261.5,198.5C 261.5,197.833 261.5,197.167 261.5,196.5 Z M 164.5,197.5 C 166.38,197.229 167.713,197.896 168.5,199.5C 166.847,199.34 165.514,198.674 164.5,197.5 Z M 246.5,198.5 C 245.292,199.234 243.959,199.567 242.5,199.5C 243.705,197.862 245.038,197.529 246.5,198.5 Z M 173.5,201.5 C 174.5,201.5 175.5,201.5 176.5,201.5C 176.068,202.71 175.401,203.71 174.5,204.5C 174.443,203.391 174.11,202.391 173.5,201.5 Z M 235.5,201.5 C 236.5,201.5 237.5,201.5 238.5,201.5C 237.89,202.391 237.557,203.391 237.5,204.5C 236.094,204.027 235.427,203.027 235.5,201.5 Z M 242.5,211.5 C 243.605,212.6 244.938,213.267 246.5,213.5C 244.902,218.095 243.568,217.428 242.5,211.5 Z M 163.5,212.5 C 165.234,213.562 166.901,213.562 168.5,212.5C 168.108,214.179 167.608,215.846 167,217.5C 166.331,215.41 165.164,213.743 163.5,212.5 Z"/></g>
<g><path style="opacity:1" fill="#3b3c3a" d="M 197.5,186.5 C 199.288,186.215 200.955,186.548 202.5,187.5C 200.235,188.647 197.902,188.814 195.5,188C 196.416,187.722 197.082,187.222 197.5,186.5 Z"/></g>
<g><path style="opacity:1" fill="#3e3e3c" d="M 208.5,186.5 C 211.271,186.421 213.937,186.921 216.5,188C 215.167,188.167 213.833,188.333 212.5,188.5C 210.667,188.415 209.334,187.748 208.5,186.5 Z"/></g>
<g><path style="opacity:1" fill="#43443e" d="M 194.5,191.5 C 197.187,191.336 199.854,191.503 202.5,192C 198.779,192.644 195.113,193.477 191.5,194.5C 191.167,194.167 190.833,193.833 190.5,193.5C 191.949,192.828 193.282,192.161 194.5,191.5 Z"/></g>
<g><path style="opacity:1" fill="#3f3f3c" d="M 208.5,192.5 C 212.408,191.202 216.408,191.368 220.5,193C 216.476,193.497 212.476,193.331 208.5,192.5 Z"/></g>
<g><path style="opacity:0.937" fill="#606d4b" d="M 150.5,196.5 C 153.167,196.5 155.833,196.5 158.5,196.5C 160.265,197.461 162.265,197.795 164.5,197.5C 165.514,198.674 166.847,199.34 168.5,199.5C 168.833,199.5 169.167,199.5 169.5,199.5C 169.842,200.338 170.508,200.672 171.5,200.5C 171.842,201.338 172.508,201.672 173.5,201.5C 174.11,202.391 174.443,203.391 174.5,204.5C 173.833,204.5 173.5,204.833 173.5,205.5C 172.662,205.842 172.328,206.508 172.5,207.5C 171.833,207.5 171.5,207.833 171.5,208.5C 170.662,208.842 170.328,209.508 170.5,210.5C 169.833,210.5 169.5,210.833 169.5,211.5C 168.833,211.5 168.5,211.833 168.5,212.5C 166.901,213.562 165.234,213.562 163.5,212.5C 162.5,211.5 161.5,210.5 160.5,209.5C 160.5,208.833 160.167,208.5 159.5,208.5C 158.9,207.1 157.9,206.1 156.5,205.5C 157.833,205.167 157.833,204.833 156.5,204.5C 156.5,203.833 156.167,203.5 155.5,203.5C 155.5,202.833 155.167,202.5 154.5,202.5C 154.5,201.833 154.167,201.5 153.5,201.5C 153.5,200.833 153.167,200.5 152.5,200.5C 152.158,199.662 151.492,199.328 150.5,199.5C 150.5,198.5 150.5,197.5 150.5,196.5 Z"/></g>
<g><path style="opacity:0.936" fill="#616f4d" d="M 253.5,196.5 C 256.167,196.5 258.833,196.5 261.5,196.5C 261.5,197.167 261.5,197.833 261.5,198.5C 260.833,199.167 260.167,199.833 259.5,200.5C 258.833,200.5 258.5,200.833 258.5,201.5C 257.833,201.5 257.5,201.833 257.5,202.5C 256.833,202.5 256.5,202.833 256.5,203.5C 255.833,203.5 255.5,203.833 255.5,204.5C 254.833,204.5 254.5,204.833 254.5,205.5C 253.599,206.29 252.932,207.29 252.5,208.5C 251.833,208.5 251.5,208.833 251.5,209.5C 250.833,209.5 250.5,209.833 250.5,210.5C 249.833,210.5 249.5,210.833 249.5,211.5C 248.833,211.5 248.5,211.833 248.5,212.5C 247.508,212.328 246.842,212.662 246.5,213.5C 244.938,213.267 243.605,212.6 242.5,211.5C 242.5,210.833 242.167,210.5 241.5,210.5C 241.5,209.833 241.167,209.5 240.5,209.5C 240.672,208.508 240.338,207.842 239.5,207.5C 239.5,206.833 239.167,206.5 238.5,206.5C 238.672,205.508 238.338,204.842 237.5,204.5C 237.557,203.391 237.89,202.391 238.5,201.5C 239.167,201.5 239.5,201.167 239.5,200.5C 240.791,200.737 241.791,200.404 242.5,199.5C 243.959,199.567 245.292,199.234 246.5,198.5C 247.167,198.5 247.5,198.167 247.5,197.5C 249.735,197.795 251.735,197.461 253.5,196.5 Z"/></g>
<g><path style="opacity:1" fill="#494b41" d="M 194.5,196.5 C 197.247,196.187 199.914,196.52 202.5,197.5C 195.129,197.934 188.296,199.934 182,203.5C 181.911,201.887 182.745,200.72 184.5,200C 188.052,199.122 191.386,197.956 194.5,196.5 Z"/></g>
<g><path style="opacity:1" fill="#494c41" d="M 209.5,196.5 C 214.675,196.272 219.675,197.105 224.5,199C 226.869,199.536 228.869,200.703 230.5,202.5C 230.167,202.833 229.833,203.167 229.5,203.5C 222.94,200.213 216.273,197.88 209.5,196.5 Z"/></g>
<g><path style="opacity:1" fill="#3e3f3c" d="M 186.5,212.5 C 191.647,213.465 193.814,216.465 193,221.5C 187.56,227.235 183.727,226.402 181.5,219C 181.527,215.483 183.193,213.316 186.5,212.5 Z"/></g>
<g><path style="opacity:1" fill="#3d3e3b" d="M 223.5,212.5 C 230.057,213.875 231.89,217.541 229,223.5C 221.736,226.865 218.402,224.531 219,216.5C 220.397,214.93 221.897,213.596 223.5,212.5 Z"/></g>
<g><path style="opacity:1" fill="#43453e" d="M 190.5,234.5 C 189.928,236.255 189.094,237.922 188,239.5C 187.259,236.981 188.092,235.315 190.5,234.5 Z"/></g>
<g><path style="opacity:1" fill="#42433e" d="M 190.5,234.5 C 191.472,231.515 193.472,230.349 196.5,231C 195.044,231.423 194.544,232.256 195,233.5C 201.959,238.66 209.126,238.826 216.5,234C 217.03,232.256 217.03,230.756 216.5,229.5C 221.221,231.361 223.721,234.694 224,239.5C 222.956,238.377 222.29,237.044 222,235.5C 221.275,234.941 220.442,234.608 219.5,234.5C 215.122,236.848 210.455,238.182 205.5,238.5C 200.209,237.954 195.209,236.62 190.5,234.5 Z"/></g>
<g><path style="opacity:0.951" fill="#b0968d" d="M 214.5,247.5 C 215.833,247.5 217.167,247.5 218.5,247.5C 229.425,253.85 230.091,261.017 220.5,269C 222.399,273.178 223.065,277.678 222.5,282.5C 218.167,282.5 213.833,282.5 209.5,282.5C 209.5,280.833 209.5,279.167 209.5,277.5C 209.5,276.5 209.5,275.5 209.5,274.5C 210.167,273.833 210.833,273.167 211.5,272.5C 210.167,270.5 210.167,268.5 211.5,266.5C 212.167,266.5 212.5,266.167 212.5,265.5C 213.167,265.5 213.5,265.167 213.5,264.5C 214.833,263.167 214.833,261.833 213.5,260.5C 213.167,259.833 212.833,259.167 212.5,258.5C 212.045,256.633 211.378,254.8 210.5,253C 210.667,252.167 210.833,251.333 211,250.5C 212.518,249.837 213.685,248.837 214.5,247.5 Z M 211.5,272.5 C 212.833,272.5 214.167,272.5 215.5,272.5C 214.366,274.781 213.032,274.781 211.5,272.5 Z"/></g>
<g><path style="opacity:0.957" fill="#b0968c" d="M 192.5,247.5 C 193.833,247.5 195.167,247.5 196.5,247.5C 200.155,248.839 201.821,251.506 201.5,255.5C 199.381,255.468 198.048,256.468 197.5,258.5C 197.5,258.833 197.5,259.167 197.5,259.5C 196.167,259.833 196.167,260.167 197.5,260.5C 196.766,261.708 196.433,263.041 196.5,264.5C 196.5,265.167 196.833,265.5 197.5,265.5C 197.81,267.144 198.81,268.144 200.5,268.5C 200.259,271.999 201.092,272.332 203,269.5C 203.383,270.056 203.883,270.389 204.5,270.5C 204.5,270.833 204.5,271.167 204.5,271.5C 203.549,272.919 203.216,274.585 203.5,276.5C 203.5,278.167 203.5,279.833 203.5,281.5C 199.265,282.436 194.931,282.769 190.5,282.5C 190.5,278.833 190.5,275.167 190.5,271.5C 191.552,271.649 192.552,271.483 193.5,271C 181.856,263.64 181.523,255.807 192.5,247.5 Z"/></g>
<g><path style="opacity:0.914" fill="#aac171" d="M 212.5,258.5 C 212.833,259.167 213.167,259.833 213.5,260.5C 213.5,261.833 213.5,263.167 213.5,264.5C 213.5,265.167 213.167,265.5 212.5,265.5C 211.833,265.5 211.5,265.833 211.5,266.5C 210.167,266.5 208.833,266.5 207.5,266.5C 207.167,266.5 206.833,266.5 206.5,266.5C 206.5,265.833 206.167,265.5 205.5,265.5C 205.5,264.833 205.167,264.5 204.5,264.5C 204.66,259.921 203.993,259.588 202.5,263.5C 201.833,263.5 201.5,263.833 201.5,264.5C 200.833,264.5 200.5,264.833 200.5,265.5C 199.5,265.5 198.5,265.5 197.5,265.5C 196.833,265.5 196.5,265.167 196.5,264.5C 196.433,263.041 196.766,261.708 197.5,260.5C 197.5,260.167 197.5,259.833 197.5,259.5C 197.5,259.167 197.5,258.833 197.5,258.5C 202.461,259.539 207.461,259.539 212.5,258.5 Z M 204.5,264.5 C 203.833,264.167 203.167,263.833 202.5,263.5C 203.993,259.588 204.66,259.921 204.5,264.5 Z"/></g>
<g><path style="opacity:0.93" fill="#966d4a" d="M 202.5,263.5 C 203.167,263.833 203.833,264.167 204.5,264.5C 205.167,264.5 205.5,264.833 205.5,265.5C 206.167,265.5 206.5,265.833 206.5,266.5C 206.833,266.5 207.167,266.5 207.5,266.5C 209.202,268.8 209.868,271.467 209.5,274.5C 209.5,275.5 209.5,276.5 209.5,277.5C 208.055,281.921 207.222,286.588 207,291.5C 206,292.833 205,292.833 204,291.5C 203.802,289.618 203.302,287.952 202.5,286.5C 202.5,286.167 202.5,285.833 202.5,285.5C 203.434,284.432 203.768,283.099 203.5,281.5C 203.5,279.833 203.5,278.167 203.5,276.5C 204.451,275.081 204.784,273.415 204.5,271.5C 204.5,271.167 204.5,270.833 204.5,270.5C 203.817,268.824 202.483,268.157 200.5,268.5C 200.5,267.5 200.5,266.5 200.5,265.5C 200.5,264.833 200.833,264.5 201.5,264.5C 202.167,264.5 202.5,264.167 202.5,263.5 Z"/></g>
<g><path style="opacity:0.761" fill="#a9c171" d="M 202.5,285.5 C 202.5,285.833 202.5,286.167 202.5,286.5C 202.586,287.496 202.252,288.329 201.5,289C 195.988,289.943 190.655,289.61 185.5,288C 187.846,284.567 191.179,283.067 195.5,283.5C 198.269,283.529 200.603,284.195 202.5,285.5 Z"/></g>
<g><path style="opacity:0.755" fill="#abc373" d="M 209.5,283.5 C 214.511,283.334 219.511,283.501 224.5,284C 226.833,285.243 227.5,286.909 226.5,289C 220.833,289.667 215.167,289.667 209.5,289C 208.248,287.172 208.248,285.339 209.5,283.5 Z"/></g>
</svg>
